# xmcd
#
# Track frame offsets: 
#        150
#        20248
#        36305
#        48695
#        70333
#        91921
#        107393
#        134355
#        151130
#        169763
#        191068
#        211512
#
# Disc length: 3020 seconds
#
# Revision: 3
# Processed by: cddbd v1.5.2PL0 Copyright (c) Steve Scherf et al.
# Submitted via: ExactAudioCopy v0.99pb4
#
DISCID=a10bca0c
DTITLE=Mary Chapin Carpenter - The Age of Miracles
DYEAR=2010
DGENRE=Country
TTITLE0=We Traveled So Far
TTITLE1=Zephyr
TTITLE2=I Put My Ring Back On
TTITLE3=Holding up the Sky
TTITLE4=4 June 1989
TTITLE5=I Was a Bird
TTITLE6=Mrs. Hemingway
TTITLE7=I Have a Need for Solitude
TTITLE8=What You Look For
TTITLE9=Iceland
TTITLE10=The Age of Miracles
TTITLE11=The Way I Feel
EXTD=
EXTT0=
EXTT1=
EXTT2=
EXTT3=
EXTT4=
EXTT5=
EXTT6=
EXTT7=
EXTT8=
EXTT9=
EXTT10=
EXTT11=
PLAYORDER=
